# AST/ASF file generated using VICON BodyLanguage
# -----------------------------------------------
:version 1.10
:name VICON
:units
  mass 1.0
  length 0.45
  angle deg
:documentation
   .ast/.asf automatically generated from VICON data using
   VICON BodyBuilder and BodyLanguage model FoxedUp or BRILLIANT.MOD
:root
   order TX TY TZ RX RY RZ
   axis XYZ
   position 0 0 0  
   orientation 0 0 0 
:bonedata
  begin
     id 1 
     name lhipjoint
     direction 0.612567 -0.751349 0.245431 
     length 2.42285 
     axis 0 0 0  XYZ
  end
  begin
     id 2 
     name lfemur
     direction 0.34202 -0.939693 0  
     length 7.11304  
     axis 0 0 20  XYZ
    dof rx ry rz
    limits (-160.0 20.0)
           (-70.0 70.0)
           (-60.0 70.0)
  end
  begin
     id 3 
     name ltibia
     direction 0.34202 -0.939693 0   
     length 7.84529   
     axis 0 0 20   XYZ
    dof rx
    limits (-10.0 170.0)
  end
  begin
     id 4 
     name lfoot
     direction 0.0779239 -0.214094 0.9737   
     length 1.97176   
     axis -90 7.62852e-016 20   XYZ
    dof rx rz
    limits (-45.0 90.0)
           (-70.0 20.0)
  end
  begin
     id 5 
     name ltoes
     direction 1.53565e-011 -4.21709e-011 1   
     length 0.993197   
     axis -90 7.62852e-016 20   XYZ
    dof rx
    limits (-90.0 20.0)
  end
  begin
     id 6 
     name rhipjoint
     direction -0.665722 -0.709315 0.231701   
     length 2.56642  
     axis 0 0 0  XYZ 
  end
  begin
     id 7 
     name rfemur
     direction -0.34202 -0.939693 0   
     length 7.32108   
     axis 0 0 -20   XYZ
    dof rx ry rz
    limits (-160.0 20.0)
           (-70.0 70.0)
           (-70.0 60.0)
  end
  begin
     id 8 
     name rtibia
     direction -0.34202 -0.939693 0   
     length 7.81254   
     axis 0 0 -20   XYZ
    dof rx
    limits (-10.0 170.0)
 end
 begin
     id 9 
     name rfoot
     direction -0.0832806 -0.228812 0.969902   
     length 2.08278  
     axis -90 -7.62852e-016 -20   XYZ
    dof rx rz
    limits (-45.0 90.0)
           (-20.0 70.0)
  end
  begin
     id 10 
     name rtoes
     direction -1.53589e-011 -4.22086e-011 1   
     length 1.04609   
     axis -90 -7.62852e-016 -20   XYZ
    dof rx
    limits (-90.0 20.0)
  end
  begin
     id 11 
     name lowerback
     direction -0.00506013 0.988403 -0.151766   
     length 2.01978   
     axis 0 0 0   XYZ
    dof rx ry rz
    limits (-20.0 45.0)
           (-30.0 30.0)
           (-30.0 30.0)
  end
  begin
     id 12 
     name upperback
     direction -0.00836389 0.99968 0.0238859   
     length 2.01276   
     axis 0 0 0   XYZ
    dof rx ry rz
    limits (-20.0 45.0)
           (-30.0 30.0)
           (-30.0 30.0)
  end
  begin
     id 13 
     name thorax
     direction -0.00684136 0.995386 0.0957043   
     length 2.07303   
     axis 0 0 0   XYZ
    dof rx ry rz
    limits (-20.0 45.0)
           (-30.0 30.0)
           (-30.0 30.0)
  end
  begin
     id 14 
     name lowerneck
     direction -0.0161045 0.999661 0.0204485   
     length 1.91243   
     axis 0 0 0   XYZ
    dof rx ry rz
    limits (-20.0 45.0)
           (-30.0 30.0)
           (-30.0 30.0)
  end
  begin
     id 15 
     name upperneck
     direction 0.0553583 0.990946 -0.122319   
     length 1.91574   
     axis 0 0 0   XYZ
    dof rx ry rz
    limits (-20.0 45.0)
           (-30.0 30.0)
           (-30.0 30.0)
  end
  begin
     id 16
     name head
     direction 0.0180273 0.998839 -0.0446756  
     length 1.92693  
     axis 0 0 0   XYZ
    dof rx ry rz
    limits (-20.0 45.0)
           (-30.0 30.0)
           (-30.0 30.0)
  end
  begin
     id 17 
     name lclavicle
     direction 0.945646 0.319323 -0.0615358  
     length 4.0076  
     axis 0 0 0   XYZ
    dof ry rz
    limits (-20.0 10.0)
           (0.0 20.0)
  end
  begin
     id 18 
     name lhumerus
     direction 1 -4.48967e-011 -2.79996e-027   
     length 5.64147   
     axis 180 -30 -90   XYZ
    dof rx ry rz
    limits (-60.0 90.0)
           (-90.0 90.0)
           (-90.0 90.0)
  end
  begin
     id 19
     name lradius
     direction 1 -4.48976e-011 -9.5122e-027   
     length 2.86444   
     axis 180 -30 -90   XYZ
    dof rx
    limits (-10.0 170.0)
  end
  begin
     id 20
     name lwrist
     direction 1 -4.48983e-011 -1.24047e-026   
     length 1.43222   
     axis 9.05591e-015 90 90   XYZ
    dof ry
    limits (-180.0 0.0)
 end
  begin
     id 21 
     name lhand
     direction 1 -4.4892e-011 -2.48094e-026   
     length 0.722123   
     axis 1.58305e-014 90 90   XYZ
    dof rx rz
    limits (-90.0 90.0)
           (-45.0 45.0)
  end
  begin
     id 22 
     name lfingers
     direction 1 -4.48895e-011 -4.96187e-026   
     length 0.582194   
     axis 3.1661e-014 90 90   XYZ
    dof rx
    limits (0.0 90.0)
  end
  begin
     id 23
     name lthumb
     direction 0.707107 -6.34961e-011 0.707107   
     length 0.835918   
     axis -90 45 2.85299e-015   XYZ
    dof rx rz
    limits (-45.0 45.0)
           (-45.0 45.0)
  end
  begin
     id 24 
     name rclavicle
     direction -0.932635 0.324218 -0.15835   
     length 3.65819  
     axis 0 0 0   XYZ 
    dof ry rz
    limits (-10.0 20.0)
           (-20.0 0.0)
  end
  begin
     id 25 
     name rhumerus
     direction -1 -4.48965e-011 -4.02296e-027  
     length 5.44729   
     axis 180 30 90   XYZ
    dof rx ry rz
    limits (-90.0 60.0)
           (-90.0 90.0)
           (-90.0 90.0)
  end
  begin
     id 26 
     name rradius
     direction -1 -4.48957e-011 -8.81087e-027   
     length 3.08821   
     axis 180 30 90   XYZ
    dof rx
    limits (-10.0 170.0)
  end
  begin
     id 27 
     name rwrist
     direction -1 -4.49015e-011 -1.24047e-026   
     length 1.5441   
     axis 9.05591e-015 -90 -90   XYZ
    dof ry
    limits (-180.0 0.0)
  end
  begin
     id 28
     name rhand
     direction -1 -4.4891e-011 -2.48094e-026   
     length 0.821049   
     axis 1.58305e-014 -90 -90   XYZ
    dof rx rz
    limits (-90.0 90.0)
           (-45.0 45.0)
  end
  begin
     id 29
     name rfingers
     direction -1 -4.48985e-011 -4.96187e-026   
     length 0.661951   
     axis 3.1661e-014 -90 -90   XYZ
    dof rx
    limits (0.0 90.0)
  end
  begin
     id 30
     name rthumb
     direction -0.707107 -6.34906e-011 0.707107   
     length 0.950433   
     axis -90 -45 -2.85299e-015   XYZ
    dof rx rz
    limits (-45.0 45.0)
           (-45.0 45.0)
  end
:hierarchy
  begin
    root lhipjoint rhipjoint lowerback
    lhipjoint lfemur
    lfemur ltibia
    ltibia lfoot
    lfoot ltoes
    rhipjoint rfemur
    rfemur rtibia
    rtibia rfoot
    rfoot rtoes
    lowerback upperback
    upperback thorax
    thorax lowerneck lclavicle rclavicle
    lowerneck upperneck
    upperneck head
    lclavicle lhumerus
    lhumerus lradius
    lradius lwrist
    lwrist lhand lthumb
    lhand lfingers
    rclavicle rhumerus
    rhumerus rradius
    rradius rwrist
    rwrist rhand rthumb
    rhand rfingers
  end

#!OML:ASF F:\VICON\USERDATA\INSTALL\rory3\rory3.ASF
:FULLY-SPECIFIED
:DEGREES
130
root -2.20961 17.5319 -9.49999 0.188314 35.6845 0.697787
lowerback 0.0375026 0.772256 3.96433
upperback 3.03601 1.00234 -0.992348
thorax 3.19386 0.627657 -3.21805
lowerneck -2.45155 -3.97034 -2.99042
upperneck 12.6997 -5.66901 4.88589
head 4.42364 -2.64259 1.72607
rclavicle 4.97893e-014 4.02539e-015
rhumerus -32.612 -9.8692 -84.5804
rradius 32.0888
rwrist 13.8437
rhand -6.67632 8.89655
rfingers 7.12502
rthumb 19.1821 -20.1775
lclavicle 4.97893e-014 4.02539e-015
lhumerus -28.9762 -1.34025 87.2367
lradius 20.5172
lwrist 26.6051
lhand -12.3722 9.44794
lfingers 7.12502
lthumb 13.6983 38.9771
rfemur 1.74387 -3.94613 27.4109
rtibia 20.7092
rfoot -21.6403 -0.927856
rtoes -6.32948
lfemur -22.1217 3.48255 -22.4785
ltibia 20.403
lfoot -11.8709 -2.66379
ltoes -17.8184
131
root -2.18431 17.5344 -9.45568 0.220473 35.6701 0.66354
lowerback 0.0253753 0.750156 3.98673
upperback 3.02613 0.972968 -1.02871
thorax 3.18918 0.613858 -3.26915
lowerneck -2.51639 -3.9836 -2.99817
upperneck 12.7963 -5.69188 4.90905
head 4.46581 -2.65061 1.7313
rclavicle 2.11954e-014 -7.25564e-015
rhumerus -32.641 -9.82157 -84.6837
rradius 32.0703
rwrist 13.6515
rhand -6.75941 8.8596
rfingers 7.12502
rthumb 19.1022 -20.2223
lclavicle 2.11954e-014 -7.25564e-015
lhumerus -28.9333 -1.45863 87.1855
lradius 20.6248
lwrist 26.6862
lhand -12.303 9.76462
lfingers 7.12502
lthumb 13.765 39.2893
rfemur 2.04877 -3.9169 27.4771
rtibia 20.3735
rfoot -21.6105 -1.05558
rtoes -6.71481
lfemur -22.217 3.49268 -22.6069
ltibia 19.4224
lfoot -11.5225 -2.66957
ltoes -17.948
132
root -2.15913 17.5377 -9.41075 0.209525 35.5818 0.55008
lowerback 0.011796 0.75891 4.00996
upperback 3.00025 0.982482 -0.981069
thorax 3.17037 0.6175 -3.23258
lowerneck -2.56947 -3.98708 -3.05188
upperneck 12.8912 -5.68929 4.85693
head 4.5037 -2.65254 1.72248
rclavicle 4.24219e-014 -4.96962e-015
rhumerus -32.7364 -9.85619 -84.6283
rradius 32.0326
rwrist 13.6919
rhand -6.8796 8.84891
rfingers 7.12502
rthumb 18.9866 -20.2444
lclavicle 4.24219e-014 -4.96962e-015
lhumerus -28.9084 -1.55542 87.2731
lradius 20.6797
lwrist 26.746
lhand -12.4335 10.1094
lfingers 7.12502
lthumb 13.6392 39.6425
rfemur 2.33323 -3.72362 27.6446
rtibia 20.0503
rfoot -21.664 -1.22874
rtoes -6.19151
lfemur -22.2526 3.47974 -22.6408
ltibia 18.4378
lfoot -11.3246 -2.51219
ltoes -18.7086
133
root -2.13324 17.5397 -9.36551 0.209078 35.4808 0.548704
lowerback 0.0257625 0.773992 3.93698
upperback 3.0012 1.00356 -0.949359
thorax 3.16295 0.625426 -3.1582
lowerneck -2.55135 -3.98674 -3.11597
upperneck 12.8733 -5.67588 4.78798
head 4.49458 -2.65334 1.71292
rclavicle 1.55363e-014 -5.96354e-016
rhumerus -32.7932 -10.0539 -84.509
rradius 31.9276
rwrist 13.8729
rhand -6.9996 8.85952
rfingers 7.12502
rthumb 18.8712 -20.2451
lclavicle 1.55363e-014 -5.96354e-016
lhumerus -28.8523 -1.50366 87.3098
lradius 20.5817
lwrist 26.6553
lhand -12.4968 9.84508
lfingers 7.12502
lthumb 13.5782 39.3823
rfemur 2.70571 -3.48155 27.7065
rtibia 19.7215
rfoot -21.8249 -1.31842
rtoes -4.71207
lfemur -22.2114 3.62943 -22.7916
ltibia 17.5003
lfoot -11.2222 -2.65399
ltoes -18.6093
134
root -2.10828 17.54 -9.32181 0.25194 35.4642 0.588905
lowerback 0.0495205 0.738349 3.89077
upperback 3.0062 0.958988 -0.997486
thorax 3.15086 0.602562 -3.18363
lowerneck -2.55372 -3.97135 -3.06331
upperneck 12.8267 -5.6509 4.73394
head 4.47678 -2.64237 1.6893
rclavicle 4.49812e-014 -1.02126e-014
rhumerus -32.7995 -10.097 -84.5759
rradius 31.8539
rwrist 13.8916
rhand -7.01314 8.81974
rfingers 7.12502
rthumb 18.8582 -20.2861
lclavicle 4.49812e-014 -1.02126e-014
lhumerus -28.8052 -1.58687 87.2185
lradius 20.5762
lwrist 26.7103
lhand -12.2459 9.40524
lfingers 7.12502
lthumb 13.82 38.9262
rfemur 3.05577 -3.27502 27.7438
rtibia 19.3773
rfoot -21.9452 -1.59489
rtoes -4.43031
lfemur -22.2618 3.81619 -23.0149
ltibia 16.664
lfoot -11.1754 -2.88161
ltoes -18.2422
135
root -2.08107 17.5406 -9.27923 0.286118 35.4492 0.517301
lowerback 0.0247591 0.704016 3.99025
upperback 2.98349 0.911393 -1.02962
thorax 3.13998 0.581225 -3.27418
lowerneck -2.50365 -3.927 -3.02138
upperneck 12.7652 -5.59205 4.72932
head 4.44584 -2.61344 1.68554
rclavicle -5.47031e-014 1.1281e-014
rhumerus -32.8304 -10.0098 -84.6491
rradius 31.7718
rwrist 13.95
rhand -6.98107 8.90693
rfingers 7.12502
rthumb 18.889 -20.1959
lclavicle -5.47031e-014 1.1281e-014
lhumerus -28.7711 -1.54893 87.1162
lradius 20.6565
lwrist 26.6999
lhand -12.1982 9.36307
lfingers 7.12502
lthumb 13.866 38.8808
rfemur 3.30269 -3.15572 27.8537
rtibia 19.0792
rfoot -21.9373 -1.82345
rtoes -4.85434
lfemur -22.3576 3.8986 -23.1379
ltibia 15.8437
lfoot -11.1926 -2.78144
ltoes -18.4676
136
root -2.0507 17.5393 -9.23408 0.244799 35.4307 0.32942
lowerback -0.0378712 0.664183 4.13503
upperback 2.94362 0.851567 -0.968224
thorax 3.1306 0.553115 -3.29344
lowerneck -2.36107 -3.87074 -3.15566
upperneck 12.6981 -5.50524 4.71482
head 4.40112 -2.58075 1.71074
rclavicle 5.00751e-014 -5.09386e-015
rhumerus -32.9343 -9.90723 -84.6106
rradius 31.7338
rwrist 13.9944
rhand -6.87914 8.89191
rfingers 7.12502
rthumb 18.9871 -20.2014
lclavicle 5.00751e-014 -5.09386e-015
lhumerus -28.7993 -1.35818 87.0997
lradius 20.701
lwrist 26.5116
lhand -12.2543 9.47786
lfingers 7.12502
lthumb 13.812 38.9993
rfemur 3.58221 -3.26453 28.0014
rtibia 18.7674
rfoot -21.8163 -1.76762
rtoes -4.98968
lfemur -22.4414 4.24535 -23.2212
ltibia 15.1134
lfoot -11.2002 -2.82493
ltoes -18.7238
137
root -2.01982 17.5382 -9.18806 0.261891 35.4151 0.328055
lowerback -0.0969806 0.649913 4.10821
upperback 2.95566 0.829642 -0.943847
thorax 3.17355 0.542216 -3.25305
lowerneck -2.36261 -3.85217 -3.22142
upperneck 12.7173 -5.46849 4.64788
head 4.40576 -2.56907 1.70264
rclavicle -4.15584e-014 1.24489e-014
rhumerus -33.0013 -9.81608 -84.594
rradius 31.6997
rwrist 13.9179
rhand -6.9681 8.65591
rfingers 7.12502
rthumb 18.9015 -20.4457
lclavicle -4.15584e-014 1.24489e-014
lhumerus -28.7336 -1.29213 87.1464
lradius 20.6464
lwrist 26.335
lhand -12.3452 9.39734
lfingers 7.12502
lthumb 13.7244 38.9247
rfemur 3.97558 -3.36797 27.9582
rtibia 18.3968
rfoot -21.738 -1.54887
rtoes -4.44925
lfemur -22.5083 4.60015 -23.4597
ltibia 14.5543
lfoot -11.2218 -3.00682
ltoes -17.561
138
root -1.99056 17.536 -9.14247 0.159642 35.4062 0.214243
lowerback -0.0564821 0.643873 4.17
upperback 2.99405 0.821521 -0.92743
thorax 3.19075 0.540786 -3.2713
lowerneck -2.4564 -3.87449 -3.14707
upperneck 12.7416 -5.49168 4.55239
head 4.42541 -2.58067 1.65799
rclavicle 1.67414e-015 -3.15571e-015
rhumerus -33.0485 -9.58266 -84.6918
rradius 31.6873
rwrist 13.6095
rhand -7.22305 8.31115
rfingers 7.12502
rthumb 18.6563 -20.8142
lclavicle 1.67414e-015 -3.15571e-015
lhumerus -28.5968 -1.23719 87.0915
lradius 20.601
lwrist 26.1883
lhand -12.2145 9.43541
lfingers 7.12502
lthumb 13.8503 38.9543
rfemur 4.45566 -3.3804 28.0178
rtibia 17.9791
rfoot -21.6217 -1.38694
rtoes -4.37099
lfemur -22.5782 4.89907 -23.5896
ltibia 14.1424
lfoot -11.279 -3.00866
ltoes -17.4522
139
root -1.96361 17.5327 -9.09855 -0.0567967 35.3892 -0.0855002
lowerback 0.0561473 0.630428 4.38369
upperback 3.00426 0.803725 -0.881524
thorax 3.13961 0.536074 -3.3457
lowerneck -2.46839 -3.87224 -3.07901
upperneck 12.7002 -5.4882 4.521
head 4.41199 -2.57799 1.63748
rclavicle 1.65308e-013 -1.58282e-014
rhumerus -33.0537 -9.54916 -84.7096
rradius 31.5441
rwrist 13.5463
rhand -7.29436 8.36248
rfingers 7.12502
rthumb 18.5877 -20.7695
lclavicle 1.65308e-013 -1.58282e-014
lhumerus -28.5046 -1.259 87.0525
lradius 20.6029
lwrist 26.2261
lhand -12.3099 9.42606
lfingers 7.12502
lthumb 13.7583 38.9512
rfemur 4.91247 -3.34379 28.2539
rtibia 17.5724
rfoot -21.3544 -1.30368
rtoes -5.23697
lfemur -22.6418 5.04512 -23.5067
ltibia 13.7876
lfoot -11.4302 -2.63804
ltoes -18.2858
140
root -1.93388 17.5288 -9.05519 -0.1873 35.3567 -0.345464
lowerback 0.0927998 0.625182 4.62287
upperback 2.97775 0.794031 -0.850369
thorax 3.09476 0.53548 -3.4489
lowerneck -2.41427 -3.85115 -3.12289
upperneck 12.646 -5.46263 4.57628
head 4.38794 -2.56602 1.66428
rclavicle -4.81618e-014 2.79541e-015
rhumerus -33.0932 -9.78772 -84.5991
rradius 31.3584
rwrist 13.8936
rhand -7.19648 8.55917
rfingers 7.12502
rthumb 18.6818 -20.5637
lclavicle -4.81618e-014 2.79541e-015
lhumerus -28.4934 -1.42256 87.0855
lradius 20.7292
lwrist 26.3979
lhand -12.4471 9.57527
lfingers 7.12502
lthumb 13.6262 39.1093
rfemur 5.29409 -3.29031 28.4385
rtibia 17.1406
rfoot -21.1125 -1.01423
rtoes -4.74531
lfemur -22.7934 5.02762 -23.414
ltibia 13.5717
lfoot -11.6424 -1.98391
ltoes -19.0897
141
root -1.90063 17.5245 -9.0098 -0.165727 35.3366 -0.419103
lowerback 0.0269247 0.614288 4.68053
upperback 2.94658 0.774585 -0.813827
thorax 3.09828 0.526043 -3.44355
lowerneck -2.3281 -3.83126 -3.21708
upperneck 12.5965 -5.42923 4.57444
head 4.35952 -2.55585 1.68278
rclavicle 4.3759e-014 -2.11209e-015
rhumerus -33.1636 -10.1152 -84.3844
rradius 31.1814
rwrist 14.3257
rhand -7.08551 8.80118
rfingers 7.12502
rthumb 18.7886 -20.3114
lclavicle 4.3759e-014 -2.11209e-015
lhumerus -28.4938 -1.42621 87.1672
lradius 20.7514
lwrist 26.3553
lhand -12.6016 9.53565
lfingers 7.12502
lthumb 13.4772 39.0796
rfemur 5.63189 -3.25454 28.4467
rtibia 16.7189
rfoot -20.9094 -0.742413
rtoes -3.76532
lfemur -23.0186 5.37128 -23.6279
ltibia 13.4455
lfoot -11.7063 -1.76147
ltoes -19.9101
142
root -1.86849 17.5204 -8.96562 -0.170532 35.3768 -0.526699
lowerback -0.0398948 0.58133 4.70655
upperback 2.94659 0.724797 -0.74063
thorax 3.1306 0.501495 -3.38314
lowerneck -2.38711 -3.81739 -3.26697
upperneck 12.6225 -5.39923 4.50663
head 4.37575 -2.54599 1.67026
rclavicle 1.33869e-014 4.37326e-015
rhumerus -33.1989 -10.0708 -84.2968
rradius 31.0991
rwrist 14.3289
rhand -7.20518 8.83136
rfingers 7.12502
rthumb 18.6735 -20.2924
lclavicle 1.33869e-014 4.37326e-015
lhumerus -28.4476 -1.35168 87.2397
lradius 20.7686
lwrist 26.2004
lhand -12.749 9.46822
lfingers 7.12502
lthumb 13.3352 39.0215
rfemur 5.92778 -3.21879 28.515
rtibia 16.4032
rfoot -20.743 -0.665736
rtoes -3.81406
lfemur -23.1821 5.88385 -23.8765
ltibia 13.2388
lfoot -11.604 -1.90306
ltoes -20.053
143
root -1.83637 17.5169 -8.9179 -0.21399 35.3844 -0.678153
lowerback -0.103167 0.613142 4.80726
upperback 2.95576 0.761268 -0.71055
thorax 3.18082 0.523319 -3.40686
lowerneck -2.49941 -3.85769 -3.25446
upperneck 12.6965 -5.45084 4.47319
head 4.41809 -2.57019 1.6526
rclavicle -1.30726e-013 4.09993e-015
rhumerus -33.3139 -9.88958 -84.3494
rradius 31.132
rwrist 13.8172
rhand -7.49168 8.77322
rfingers 7.12502
rthumb 18.3979 -20.3767
lclavicle -1.30726e-013 4.09993e-015
lhumerus -28.3879 -1.76712 87.3993
lradius 20.8809
lwrist 26.5145
lhand -12.7781 9.41497
lfingers 7.12502
lthumb 13.3071 38.9701
rfemur 6.19917 -3.17399 28.6269
rtibia 16.1963
rfoot -20.6682 -0.55328
rtoes -3.75599
lfemur -23.2107 6.1016 -23.9554
ltibia 12.9471
lfoot -11.4871 -1.77272
ltoes -19.2654
144
root -1.80045 17.5149 -8.87051 -0.155396 35.3441 -0.604493
lowerback -0.0973922 0.638826 4.73927
upperback 2.93539 0.797572 -0.719225
thorax 3.15864 0.538747 -3.37663
lowerneck -2.53996 -3.88135 -3.21682
upperneck 12.7512 -5.47471 4.37746
head 4.43908 -2.58405 1.61475
rclavicle 3.73125e-014 2.18663e-015
rhumerus -33.434 -9.80654 -84.3095
rradius 31.0769
rwrist 13.5698
rhand -7.58546 8.87635
rfingers 7.12502
rthumb 18.3077 -20.2821
lclavicle 3.73125e-014 2.18663e-015
lhumerus -28.3397 -1.77588 87.4539
lradius 20.9072
lwrist 26.5662
lhand -12.6363 9.52064
lfingers 7.12502
lthumb 13.4438 39.0668
rfemur 6.47454 -3.19852 28.4863
rtibia 16.0687
rfoot -20.6095 -0.295428
rtoes -3.58505
lfemur -23.147 6.26326 -24.2056
ltibia 12.615
lfoot -11.4006 -1.58116
ltoes -18.9747
